<mxfile host="app.diagrams.net" agent="Mozilla/5.0 (Windows NT 10.0; Win64; x64) AppleWebKit/537.36 (KHTML, like Gecko) Chrome/129.0.0.0 Safari/537.36" version="24.7.16">
  <diagram name="Trang-1" id="QEVZbDWfs3nEbCAyYQS8">
    <mxGraphModel>
      <root>
        <mxCell id="0" />
        <mxCell id="1" parent="0" />
        <mxCell id="2" value="User" style="whiteSpace=wrap;strokeWidth=2;" vertex="1" parent="1">
          <mxGeometry x="8" y="62" width="93" height="48" as="geometry" />
        </mxCell>
        <mxCell id="3" value="Dashboard" style="ellipse;aspect=fixed;strokeWidth=2;whiteSpace=wrap;" vertex="1" parent="1">
          <mxGeometry x="204" y="42" width="89" height="89" as="geometry" />
        </mxCell>
        <mxCell id="4" value="Order" style="ellipse;aspect=fixed;strokeWidth=2;whiteSpace=wrap;" vertex="1" parent="1">
          <mxGeometry x="519" y="16" width="57" height="57" as="geometry" />
        </mxCell>
        <mxCell id="5" value="Order History" style="ellipse;aspect=fixed;strokeWidth=2;whiteSpace=wrap;" vertex="1" parent="1">
          <mxGeometry x="491" y="123" width="112" height="112" as="geometry" />
        </mxCell>
        <mxCell id="6" value="" style="whiteSpace=wrap;strokeWidth=2;" vertex="1" parent="1">
          <mxGeometry x="653" y="27" as="geometry" />
        </mxCell>
        <mxCell id="7" value="" style="whiteSpace=wrap;strokeWidth=2;" vertex="1" parent="1">
          <mxGeometry x="812" y="45" as="geometry" />
        </mxCell>
        <mxCell id="8" value="" style="whiteSpace=wrap;strokeWidth=2;" vertex="1" parent="1">
          <mxGeometry x="653" y="130" as="geometry" />
        </mxCell>
        <mxCell id="9" value="" style="whiteSpace=wrap;strokeWidth=2;" vertex="1" parent="1">
          <mxGeometry x="812" y="179" as="geometry" />
        </mxCell>
        <mxCell id="10" value="Logs In" style="curved=1;startArrow=none;endArrow=block;exitX=1;exitY=0.51;entryX=0;entryY=0.5;" edge="1" parent="1" source="2" target="3">
          <mxGeometry relative="1" as="geometry">
            <Array as="points" />
          </mxGeometry>
        </mxCell>
        <mxCell id="11" value="Creates New Order" style="curved=1;startArrow=none;endArrow=block;exitX=1.01;exitY=0.26;entryX=-0.01;entryY=0.42;" edge="1" parent="1" source="3" target="4">
          <mxGeometry relative="1" as="geometry">
            <Array as="points">
              <mxPoint x="392" y="19" />
            </Array>
          </mxGeometry>
        </mxCell>
        <mxCell id="12" value="" style="curved=1;startArrow=none;endArrow=none;exitX=0.99;exitY=0.4;entryX=Infinity;entryY=Infinity;" edge="1" parent="1" source="4" target="6">
          <mxGeometry relative="1" as="geometry">
            <Array as="points">
              <mxPoint x="628" y="27" />
            </Array>
          </mxGeometry>
        </mxCell>
        <mxCell id="13" value="Updates Order" style="curved=1;startArrow=none;endArrow=none;exitX=Infinity;exitY=Infinity;entryX=Infinity;entryY=-Infinity;" edge="1" parent="1" source="6" target="7">
          <mxGeometry relative="1" as="geometry">
            <Array as="points">
              <mxPoint x="733" y="27" />
            </Array>
          </mxGeometry>
        </mxCell>
        <mxCell id="14" value="" style="curved=1;startArrow=none;endArrow=block;exitX=Infinity;exitY=-Infinity;entryX=0.99;entryY=0.81;" edge="1" parent="1" source="7" target="4">
          <mxGeometry relative="1" as="geometry">
            <Array as="points">
              <mxPoint x="733" y="95" />
              <mxPoint x="628" y="95" />
            </Array>
          </mxGeometry>
        </mxCell>
        <mxCell id="15" value="Receives Order Confirmation" style="curved=1;startArrow=none;endArrow=block;exitX=-0.01;exitY=0.64;entryX=1.01;entryY=0.5;" edge="1" parent="1" source="4" target="3">
          <mxGeometry relative="1" as="geometry">
            <Array as="points">
              <mxPoint x="392" y="86" />
            </Array>
          </mxGeometry>
        </mxCell>
        <mxCell id="16" value="Views Order History" style="curved=1;startArrow=none;endArrow=block;exitX=1.01;exitY=0.82;entryX=0;entryY=0.5;" edge="1" parent="1" source="3" target="5">
          <mxGeometry relative="1" as="geometry">
            <Array as="points">
              <mxPoint x="392" y="179" />
            </Array>
          </mxGeometry>
        </mxCell>
        <mxCell id="17" value="" style="curved=1;startArrow=none;endArrow=none;exitX=1;exitY=0.2;entryX=Infinity;entryY=-Infinity;" edge="1" parent="1" source="5" target="8">
          <mxGeometry relative="1" as="geometry">
            <Array as="points">
              <mxPoint x="628" y="130" />
            </Array>
          </mxGeometry>
        </mxCell>
        <mxCell id="18" value="Deletes Order" style="curved=1;startArrow=none;endArrow=none;exitX=Infinity;exitY=-Infinity;entryX=Infinity;entryY=Infinity;" edge="1" parent="1" source="8" target="9">
          <mxGeometry relative="1" as="geometry">
            <Array as="points">
              <mxPoint x="733" y="130" />
            </Array>
          </mxGeometry>
        </mxCell>
        <mxCell id="19" value="" style="curved=1;startArrow=none;endArrow=block;exitX=Infinity;exitY=Infinity;entryX=1;entryY=0.61;" edge="1" parent="1" source="9" target="5">
          <mxGeometry relative="1" as="geometry">
            <Array as="points">
              <mxPoint x="733" y="197" />
              <mxPoint x="628" y="197" />
            </Array>
          </mxGeometry>
        </mxCell>
      </root>
    </mxGraphModel>
  </diagram>
</mxfile>
